<svg id="Groupe_102" data-name="Groupe 102" xmlns="http://www.w3.org/2000/svg" xmlns:xlink="http://www.w3.org/1999/xlink" width="362.546" height="130" viewBox="0 0 362.546 130">
  <defs>
    <clipPath id="clip-path">
      <rect id="Rectangle_110" data-name="Rectangle 110" width="362.546" height="130" fill="none"/>
    </clipPath>
  </defs>
  <rect id="Rectangle_105" data-name="Rectangle 105" width="2.403" height="17.245" transform="translate(39.752 56.254)" fill="#28367b"/>
  <path id="Tracé_24" data-name="Tracé 24" d="M83.93,85.863v17.245H81.5V89.894l-5.513,6.835-5.537-6.835v13.215H68.024V85.863h2.117L75.988,93,81.8,85.863Z" transform="translate(-23.457 -29.609)" fill="#28367b"/>
  <g id="Groupe_101" data-name="Groupe 101">
    <g id="Groupe_100" data-name="Groupe 100" clip-path="url(#clip-path)">
      <path id="Tracé_25" data-name="Tracé 25" d="M106.243,97.577l3.6,5.531h-2.87l-2.994-4.663c-.294-.455-.579-.868-.835-1.247a10.274,10.274,0,0,0-.788-1.015,2.548,2.548,0,0,0-2.054-.778H98.446v7.7H96.019V85.863h4.64a9.862,9.862,0,0,1,2.427.28,5.433,5.433,0,0,1,1.908.9,3.95,3.95,0,0,1,1.238,1.555,4.95,4.95,0,0,1,.413,2.049,3.959,3.959,0,0,1-1.084,2.9,7.421,7.421,0,0,1-1.435,1.132c.125.122.244.26.364.4s.24.3.363.468c.252.364.493.714.718,1.038s.453.658.672,1m-2.99-5.07a2.223,2.223,0,0,0,.648-.776,2.452,2.452,0,0,0,.225-1.107,2.172,2.172,0,0,0-.85-1.835,4.366,4.366,0,0,0-2.638-.711H98.446v5.115h2.074a6.2,6.2,0,0,0,1.614-.18,3.224,3.224,0,0,0,1.119-.506" transform="translate(-33.111 -29.609)" fill="#28367b"/>
      <path id="Tracé_26" data-name="Tracé 26" d="M130.67,95.028a4.112,4.112,0,0,1,1.249,3.136,4.488,4.488,0,0,1-1.648,3.674,6.83,6.83,0,0,1-4.338,1.27h-5.276V85.863h4.075a8.6,8.6,0,0,1,2.332.3,5.443,5.443,0,0,1,1.862.905,4.4,4.4,0,0,1,1.6,3.584,4.113,4.113,0,0,1-1.53,3.32,4.521,4.521,0,0,1,1.673,1.059m-3.529-2.378a2.307,2.307,0,0,0,.645-.776,2.471,2.471,0,0,0,.224-1.112,2.879,2.879,0,0,0-.224-1.209,2.041,2.041,0,0,0-.625-.787,3.277,3.277,0,0,0-1.145-.512,7.054,7.054,0,0,0-1.709-.175H123.08v5.232h1.3a4.637,4.637,0,0,0,2.761-.661m1.386,7.541a2.271,2.271,0,0,0,.9-1.908,2.769,2.769,0,0,0-.24-1.238,1.923,1.923,0,0,0-.708-.788,3.8,3.8,0,0,0-1.283-.548,8.321,8.321,0,0,0-1.9-.183H123.08v5.366H125.7a6.034,6.034,0,0,0,1.645-.187,4.1,4.1,0,0,0,1.18-.514" transform="translate(-41.608 -29.609)" fill="#28367b"/>
      <path id="Tracé_27" data-name="Tracé 27" d="M98.723,195.475c-.316,0-.63-.005-.941-.009l.078-5.6q.888.012,1.782,0l.078,5.6c-.33,0-.66.009-1,.009" transform="translate(-33.719 -65.475)" fill="#d94d15"/>
      <path id="Tracé_28" data-name="Tracé 28" d="M93.791,195.332c-.643-.024-1.3-.067-1.944-.111l.412-5.583c.591.041,1.185.078,1.78.1Z" transform="translate(-31.673 -65.395)" fill="#d94d15"/>
      <path id="Tracé_29" data-name="Tracé 29" d="M103.575,195.327l-.251-5.592c.594-.028,1.187-.066,1.775-.111l.416,5.588c-.641.047-1.3.082-1.94.115" transform="translate(-35.63 -65.39)" fill="#d94d15"/>
      <path id="Tracé_30" data-name="Tracé 30" d="M120.675,192.86l-1.242-5.46c.576-.132,1.157-.273,1.726-.417l1.407,5.418c-.624.157-1.259.313-1.891.459" transform="translate(-41.185 -64.479)" fill="#d94d15"/>
      <path id="Tracé_31" data-name="Tracé 31" d="M70.456,191.378c-.615-.177-1.242-.368-1.858-.569l1.728-5.331c.563.185,1.133.362,1.7.529Z" transform="translate(-23.655 -63.96)" fill="#d94d15"/>
      <path id="Tracé_32" data-name="Tracé 32" d="M131.729,189.522l-1.891-5.268c.556-.2,1.114-.409,1.662-.624l2.049,5.212c-.6.235-1.21.462-1.819.681" transform="translate(-44.773 -63.323)" fill="#d94d15"/>
      <path id="Tracé_33" data-name="Tracé 33" d="M59.3,187.384c-.6-.252-1.2-.525-1.779-.793l2.353-5.08c.535.248,1.082.487,1.627.723Z" transform="translate(-19.837 -62.592)" fill="#d94d15"/>
      <path id="Tracé_34" data-name="Tracé 34" d="M137.08,187.367l-2.2-5.146c.536-.231,1.082-.47,1.615-.723l2.358,5.08c-.584.273-1.18.541-1.77.788" transform="translate(-46.511 -62.588)" fill="#d94d15"/>
      <path id="Tracé_35" data-name="Tracé 35" d="M53.933,184.907c-.579-.294-1.164-.591-1.728-.9l2.655-4.931c.521.28,1.05.558,1.579.818Z" transform="translate(-18.002 -61.754)" fill="#d94d15"/>
      <path id="Tracé_36" data-name="Tracé 36" d="M142.291,184.9l-2.5-5c.518-.259,1.053-.541,1.567-.818l2.655,4.931c-.564.305-1.144.6-1.718.892" transform="translate(-48.204 -61.754)" fill="#d94d15"/>
      <path id="Tracé_37" data-name="Tracé 37" d="M43.708,179.037c-.54-.36-1.078-.727-1.6-1.1l3.223-4.576c.482.337.976.681,1.471,1Z" transform="translate(-14.519 -59.783)" fill="#d94d15"/>
      <path id="Tracé_38" data-name="Tracé 38" d="M38.89,175.665c-.518-.388-1.035-.784-1.537-1.19l3.489-4.373c.465.371.936.736,1.409,1.086Z" transform="translate(-12.881 -58.658)" fill="#d94d15"/>
      <path id="Tracé_39" data-name="Tracé 39" d="M165.718,168.174l-3.868-4.048c.423-.412.851-.83,1.264-1.246l3.986,3.931c-.449.454-.917.913-1.382,1.363" transform="translate(-55.812 -56.168)" fill="#d94d15"/>
      <path id="Tracé_40" data-name="Tracé 40" d="M29.921,168.136c-.465-.447-.932-.9-1.386-1.368l3.99-3.927c.412.417.842.839,1.265,1.247Z" transform="translate(-9.84 -56.154)" fill="#d94d15"/>
      <path id="Tracé_41" data-name="Tracé 41" d="M173.553,159.664,169.23,156.1c.374-.449.751-.917,1.111-1.384l4.427,3.428q-.6.768-1.215,1.52" transform="translate(-58.357 -53.352)" fill="#d94d15"/>
      <path id="Tracé_42" data-name="Tracé 42" d="M21.945,159.62c-.411-.5-.818-1-1.213-1.516l4.425-3.431c.364.47.733.937,1.111,1.4Z" transform="translate(-7.149 -53.338)" fill="#d94d15"/>
      <path id="Tracé_43" data-name="Tracé 43" d="M177.083,155.072l-4.526-3.3c.348-.479.694-.966,1.027-1.454l4.622,3.164c-.364.529-.742,1.065-1.124,1.585" transform="translate(-59.505 -51.837)" fill="#d94d15"/>
      <path id="Tracé_44" data-name="Tracé 44" d="M18.362,155.049c-.38-.525-.756-1.061-1.12-1.589l4.622-3.155c.333.484.679.966,1.023,1.445Z" transform="translate(-5.946 -51.831)" fill="#d94d15"/>
      <path id="Tracé_45" data-name="Tracé 45" d="M183.3,145.308l-4.886-2.737c.293-.517.573-1.04.844-1.566l4.964,2.586c-.3.569-.6,1.148-.922,1.717" transform="translate(-61.525 -48.624)" fill="#d94d15"/>
      <path id="Tracé_46" data-name="Tracé 46" d="M12.077,145.3c-.316-.561-.624-1.135-.922-1.706l4.969-2.585c.269.521.552,1.044.838,1.561Z" transform="translate(-3.847 -48.627)" fill="#d94d15"/>
      <path id="Tracé_47" data-name="Tracé 47" d="M9.4,140.185c-.279-.577-.556-1.172-.815-1.758l5.114-2.279c.236.532.488,1.074.741,1.6Z" transform="translate(-2.959 -46.949)" fill="#d94d15"/>
      <path id="Tracé_48" data-name="Tracé 48" d="M7.041,134.914c-.246-.595-.481-1.207-.713-1.81l5.239-1.971c.208.55.431,1.107.65,1.652Z" transform="translate(-2.182 -45.22)" fill="#d94d15"/>
      <path id="Tracé_49" data-name="Tracé 49" d="M190.348,129.44l-5.305-1.81c.2-.556.381-1.131.556-1.7l5.35,1.648c-.192.619-.39,1.247-.6,1.858" transform="translate(-63.81 -43.427)" fill="#d94d15"/>
      <path id="Tracé_50" data-name="Tracé 50" d="M194.43,112.627,188.9,111.8c.087-.58.165-1.176.238-1.762l5.556.66c-.077.641-.164,1.292-.259,1.928" transform="translate(-65.139 -37.946)" fill="#d94d15"/>
      <path id="Tracé_51" data-name="Tracé 51" d="M.325,106.979c-.058-.64-.1-1.3-.146-1.936l5.59-.339c.034.592.081,1.186.132,1.776Z" transform="translate(-0.062 -36.106)" fill="#d94d15"/>
      <path id="Tracé_52" data-name="Tracé 52" d="M195.108,106.9l-5.575-.494c.05-.587.1-1.181.133-1.772l5.586.33c-.037.643-.085,1.3-.143,1.936" transform="translate(-65.359 -36.083)" fill="#d94d15"/>
      <path id="Tracé_53" data-name="Tracé 53" d="M.031,101.225C.013,100.58,0,99.925,0,99.281l5.6-.009c0,.594.013,1.2.029,1.788Z" transform="translate(0 -34.233)" fill="#d94d15"/>
      <path id="Tracé_54" data-name="Tracé 54" d="M5.64,95.462.047,95.3c.014-.644.043-1.3.082-1.941l5.585.326c-.031.591-.058,1.19-.074,1.776" transform="translate(-0.016 -32.194)" fill="#d94d15"/>
      <path id="Tracé_55" data-name="Tracé 55" d="M5.964,89.874.386,89.387c.059-.644.124-1.3.2-1.933l5.556.656c-.065.582-.129,1.177-.179,1.764" transform="translate(-0.133 -30.158)" fill="#d94d15"/>
      <path id="Tracé_56" data-name="Tracé 56" d="M188.715,84.113c-.087-.586-.184-1.177-.293-1.756l5.515-1c.111.636.219,1.276.316,1.916Z" transform="translate(-64.976 -28.056)" fill="#d94d15"/>
      <path id="Tracé_57" data-name="Tracé 57" d="M8.93,73.393l-5.4-1.483c.169-.623.357-1.251.542-1.866l5.35,1.639c-.173.57-.337,1.14-.5,1.71" transform="translate(-1.218 -24.154)" fill="#d94d15"/>
      <path id="Tracé_58" data-name="Tracé 58" d="M10.579,68.046l-5.3-1.8c.209-.611.425-1.23.659-1.834l5.243,1.958c-.211.557-.413,1.123-.6,1.68" transform="translate(-1.82 -22.21)" fill="#d94d15"/>
      <path id="Tracé_59" data-name="Tracé 59" d="M184.691,67.86c-.185-.558-.39-1.119-.6-1.673l5.239-1.973c.229.6.448,1.217.66,1.829Z" transform="translate(-63.482 -22.144)" fill="#d94d15"/>
      <path id="Tracé_60" data-name="Tracé 60" d="M182.732,62.639c-.224-.541-.463-1.09-.7-1.627l5.109-2.284c.265.586.518,1.186.764,1.78Z" transform="translate(-62.772 -20.252)" fill="#d94d15"/>
      <path id="Tracé_61" data-name="Tracé 61" d="M20.294,47.978l-4.718-3.019c.351-.541.712-1.09,1.074-1.623l4.626,3.155c-.334.487-.663.991-.983,1.487" transform="translate(-5.371 -14.944)" fill="#d94d15"/>
      <path id="Tracé_62" data-name="Tracé 62" d="M175.083,47.883c-.316-.5-.646-1-.979-1.479l4.62-3.163c.364.529.724,1.074,1.074,1.619Z" transform="translate(-60.038 -14.911)" fill="#d94d15"/>
      <path id="Tracé_63" data-name="Tracé 63" d="M26.889,38.99l-4.327-3.556c.413-.5.835-1,1.259-1.479l4.218,3.68c-.39.446-.776.9-1.15,1.354" transform="translate(-7.78 -11.709)" fill="#d94d15"/>
      <path id="Tracé_64" data-name="Tracé 64" d="M30.574,34.808l-4.1-3.8c.438-.474.892-.945,1.34-1.4l3.99,3.927c-.413.422-.824.855-1.23,1.28" transform="translate(-9.129 -10.208)" fill="#d94d15"/>
      <path id="Tracé_65" data-name="Tracé 65" d="M164.994,34.747c-.4-.429-.808-.863-1.228-1.284l3.99-3.932c.454.463.9.934,1.344,1.4Z" transform="translate(-56.473 -10.183)" fill="#d94d15"/>
      <path id="Tracé_66" data-name="Tracé 66" d="M157.081,27.1c-.448-.379-.911-.759-1.372-1.128L159.2,21.6c.5.4,1.012.814,1.5,1.231Z" transform="translate(-53.695 -7.449)" fill="#d94d15"/>
      <path id="Tracé_67" data-name="Tracé 67" d="M43.04,23.718l-3.366-4.477c.513-.385,1.044-.772,1.566-1.144l3.23,4.576c-.479.339-.964.689-1.431,1.045" transform="translate(-13.681 -6.241)" fill="#d94d15"/>
      <path id="Tracé_68" data-name="Tracé 68" d="M152.8,23.659c-.468-.356-.956-.706-1.434-1.05l3.218-4.575c.531.375,1.058.755,1.578,1.144Z" transform="translate(-52.198 -6.219)" fill="#d94d15"/>
      <path id="Tracé_69" data-name="Tracé 69" d="M138.867,14.98c-.526-.26-1.065-.521-1.6-.777l2.351-5.076q.89.409,1.758.843Z" transform="translate(-47.334 -3.147)" fill="#d94d15"/>
      <path id="Tracé_70" data-name="Tracé 70" d="M62.338,12.747l-2.2-5.142c.586-.252,1.188-.5,1.79-.735l2.05,5.2c-.545.219-1.1.446-1.637.673" transform="translate(-20.737 -2.369)" fill="#d94d15"/>
      <path id="Tracé_71" data-name="Tracé 71" d="M67.543,10.757l-1.9-5.269c.611-.219,1.23-.43,1.84-.628l1.736,5.324c-.561.177-1.122.375-1.675.573" transform="translate(-22.636 -1.676)" fill="#d94d15"/>
      <path id="Tracé_72" data-name="Tracé 72" d="M128.827,10.685c-.556-.2-1.121-.392-1.688-.569l1.722-5.332c.615.2,1.238.413,1.85.628Z" transform="translate(-43.843 -1.65)" fill="#d94d15"/>
      <path id="Tracé_73" data-name="Tracé 73" d="M72.865,9.083,71.291,3.706c.619-.181,1.251-.354,1.873-.516L74.578,8.6c-.572.153-1.15.309-1.713.479" transform="translate(-24.584 -1.1)" fill="#d94d15"/>
      <path id="Tracé_74" data-name="Tracé 74" d="M113.053,6.675c-.582-.1-1.173-.182-1.76-.261l.737-5.55c.64.083,1.286.181,1.925.281Z" transform="translate(-38.378 -0.298)" fill="#d94d15"/>
      <path id="Tracé_75" data-name="Tracé 75" d="M102.253,5.653c-.589-.029-1.193-.045-1.775-.054l.074-5.6c.643.008,1.3.029,1.94.058Z" transform="translate(-34.649)" fill="#d94d15"/>
      <path id="Tracé_76" data-name="Tracé 76" d="M99.26,185.976v-5.6c.588,0,1.183-.008,1.776-.028l.185,5.59c-.649.026-1.309.039-1.962.039" transform="translate(-34.229 -62.191)" fill="#d94d15"/>
      <path id="Tracé_77" data-name="Tracé 77" d="M89.256,185.454c-.649-.062-1.3-.14-1.952-.227l.74-5.551q.883.119,1.766.207Z" transform="translate(-30.106 -61.96)" fill="#d94d15"/>
      <path id="Tracé_78" data-name="Tracé 78" d="M110.821,185.087l-.745-5.555c.586-.074,1.179-.164,1.76-.263l.926,5.522c-.641.1-1.293.2-1.941.3" transform="translate(-37.959 -61.819)" fill="#d94d15"/>
      <path id="Tracé_79" data-name="Tracé 79" d="M83.329,184.633c-.649-.111-1.3-.227-1.932-.354L82.5,178.79c.575.114,1.164.227,1.749.317Z" transform="translate(-28.069 -61.654)" fill="#d94d15"/>
      <path id="Tracé_80" data-name="Tracé 80" d="M122.178,182.659l-1.481-5.4c.575-.154,1.15-.322,1.713-.493l1.658,5.343c-.622.195-1.261.38-1.89.55" transform="translate(-41.621 -60.956)" fill="#d94d15"/>
      <path id="Tracé_81" data-name="Tracé 81" d="M71.7,181.835c-.62-.189-1.253-.4-1.874-.611l1.834-5.291c.561.195,1.131.38,1.692.558Z" transform="translate(-24.078 -60.669)" fill="#d94d15"/>
      <path id="Tracé_82" data-name="Tracé 82" d="M133.12,178.74l-2.187-5.158c.541-.227,1.086-.467,1.619-.718l2.364,5.075c-.592.276-1.194.545-1.8.8" transform="translate(-45.151 -59.611)" fill="#d94d15"/>
      <path id="Tracé_83" data-name="Tracé 83" d="M138.364,176.241l-2.53-4.993c.529-.269,1.052-.549,1.567-.831l2.695,4.911c-.569.314-1.154.624-1.732.913" transform="translate(-46.841 -58.767)" fill="#d94d15"/>
      <path id="Tracé_84" data-name="Tracé 84" d="M55.2,174.869c-.575-.314-1.148-.649-1.709-.979l2.86-4.815c.508.306,1.026.6,1.542.884Z" transform="translate(-18.447 -58.304)" fill="#d94d15"/>
      <path id="Tracé_85" data-name="Tracé 85" d="M50.078,171.849c-.548-.351-1.1-.714-1.642-1.081l3.176-4.618c.484.335.987.665,1.482.988Z" transform="translate(-16.703 -57.295)" fill="#d94d15"/>
      <path id="Tracé_86" data-name="Tracé 86" d="M148.315,170.233l-3.167-4.613c.481-.335.966-.682,1.443-1.033l3.321,4.506c-.521.388-1.063.772-1.6,1.14" transform="translate(-50.053 -56.756)" fill="#d94d15"/>
      <path id="Tracé_87" data-name="Tracé 87" d="M45.176,168.514c-.527-.385-1.049-.789-1.559-1.194l3.468-4.389c.463.367.942.729,1.415,1.081Z" transform="translate(-15.041 -56.185)" fill="#d94d15"/>
      <path id="Tracé_88" data-name="Tracé 88" d="M152.981,166.752l-3.473-4.4c.462-.364.924-.74,1.375-1.12l3.616,4.274c-.495.421-1.01.834-1.517,1.243" transform="translate(-51.556 -55.6)" fill="#d94d15"/>
      <path id="Tracé_89" data-name="Tracé 89" d="M40.518,164.867c-.5-.423-1-.859-1.481-1.293l3.755-4.154c.436.4.886.793,1.337,1.172Z" transform="translate(-13.462 -54.974)" fill="#d94d15"/>
      <path id="Tracé_90" data-name="Tracé 90" d="M157.4,162.959l-3.751-4.155c.433-.4.873-.8,1.294-1.213l3.892,4.025c-.469.451-.952.9-1.435,1.342" transform="translate(-52.985 -54.344)" fill="#d94d15"/>
      <path id="Tracé_91" data-name="Tracé 91" d="M36.114,160.932c-.468-.455-.936-.921-1.391-1.388l4.027-3.894c.408.425.832.846,1.254,1.256Z" transform="translate(-11.974 -53.674)" fill="#d94d15"/>
      <path id="Tracé_92" data-name="Tracé 92" d="M161.57,158.888l-4.024-3.894c.411-.421.822-.864,1.219-1.294l4.147,3.754c-.44.484-.888.966-1.342,1.433" transform="translate(-54.328 -53.002)" fill="#d94d15"/>
      <path id="Tracé_93" data-name="Tracé 93" d="M32,156.72c-.438-.48-.869-.979-1.291-1.479l4.272-3.612c.385.449.774.9,1.168,1.337Z" transform="translate(-10.59 -52.288)" fill="#d94d15"/>
      <path id="Tracé_94" data-name="Tracé 94" d="M165.466,154.544l-4.272-3.617c.38-.451.76-.909,1.124-1.381l4.391,3.474c-.4.516-.824,1.027-1.243,1.524" transform="translate(-55.586 -51.57)" fill="#d94d15"/>
      <path id="Tracé_95" data-name="Tracé 95" d="M169.064,149.96l-4.5-3.328c.35-.471.7-.958,1.034-1.445l4.609,3.174c-.37.538-.756,1.075-1.14,1.6" transform="translate(-56.747 -50.066)" fill="#d94d15"/>
      <path id="Tracé_96" data-name="Tracé 96" d="M24.685,147.562c-.37-.532-.737-1.082-1.081-1.63l4.709-3.015c.32.5.647.995.985,1.478Z" transform="translate(-8.14 -49.284)" fill="#d94d15"/>
      <path id="Tracé_97" data-name="Tracé 97" d="M172.353,145.144l-4.714-3.018c.32-.5.63-1.008.932-1.517l4.815,2.862c-.333.558-.679,1.124-1.033,1.673" transform="translate(-57.809 -48.488)" fill="#d94d15"/>
      <path id="Tracé_98" data-name="Tracé 98" d="M21.514,142.654c-.333-.562-.663-1.14-.975-1.7l4.908-2.7q.421.775.879,1.545Z" transform="translate(-7.083 -47.675)" fill="#d94d15"/>
      <path id="Tracé_99" data-name="Tracé 99" d="M175.315,140.122l-4.907-2.7c.29-.516.571-1.05.835-1.569l4.99,2.524c-.292.586-.6,1.168-.919,1.743" transform="translate(-58.764 -46.849)" fill="#d94d15"/>
      <path id="Tracé_100" data-name="Tracé 100" d="M18.691,137.56c-.293-.582-.579-1.177-.855-1.763l5.075-2.366c.248.533.512,1.069.774,1.589Z" transform="translate(-6.151 -46.012)" fill="#d94d15"/>
      <path id="Tracé_101" data-name="Tracé 101" d="M14.136,126.864c-.212-.614-.419-1.242-.613-1.862l5.347-1.665c.175.562.363,1.128.555,1.685Z" transform="translate(-4.663 -42.532)" fill="#d94d15"/>
      <path id="Tracé_102" data-name="Tracé 102" d="M182.128,124.024l-5.345-1.66c.169-.562.337-1.133.491-1.707l5.4,1.479c-.168.623-.354,1.264-.548,1.888" transform="translate(-60.962 -41.607)" fill="#d94d15"/>
      <path id="Tracé_103" data-name="Tracé 103" d="M12.429,121.306c-.174-.628-.339-1.268-.489-1.9l5.444-1.3c.138.573.284,1.152.442,1.722Z" transform="translate(-4.117 -40.728)" fill="#d94d15"/>
      <path id="Tracé_104" data-name="Tracé 104" d="M11.1,115.652c-.129-.637-.254-1.285-.364-1.929l5.524-.937c.1.586.206,1.176.322,1.751Z" transform="translate(-3.704 -38.893)" fill="#d94d15"/>
      <path id="Tracé_105" data-name="Tracé 105" d="M185.567,106.961l-5.573-.553c.062-.583.111-1.181.149-1.772l5.585.373c-.043.651-.1,1.308-.161,1.952" transform="translate(-62.069 -36.083)" fill="#d94d15"/>
      <path id="Tracé_106" data-name="Tracé 106" d="M9.646,104.152c-.043-.647-.075-1.309-.1-1.965l5.6-.185c.019.591.048,1.188.086,1.779Z" transform="translate(-3.293 -35.174)" fill="#d94d15"/>
      <path id="Tracé_107" data-name="Tracé 107" d="M185.948,101.123l-5.6-.183c.022-.59.029-1.189.029-1.779v-.1h5.6v.09c0,.66-.01,1.322-.033,1.975" transform="translate(-62.192 -34.159)" fill="#d94d15"/>
      <path id="Tracé_108" data-name="Tracé 108" d="M15.094,98.261H9.5v-.05c0-.636.013-1.272.033-1.907l5.592.181c-.016.57-.027,1.148-.027,1.726Z" transform="translate(-3.275 -33.21)" fill="#d94d15"/>
      <path id="Tracé_109" data-name="Tracé 109" d="M15.826,87.06l-5.549-.735c.087-.648.18-1.3.29-1.941l5.524.913c-.1.586-.187,1.173-.265,1.763" transform="translate(-3.544 -29.099)" fill="#d94d15"/>
      <path id="Tracé_110" data-name="Tracé 110" d="M179.084,84.056c-.1-.579-.21-1.165-.328-1.747l5.484-1.115c.133.636.256,1.285.365,1.929Z" transform="translate(-61.642 -27.999)" fill="#d94d15"/>
      <path id="Tracé_111" data-name="Tracé 111" d="M177.94,78.566c-.138-.575-.286-1.152-.442-1.722l5.4-1.487c.175.628.336,1.272.491,1.9Z" transform="translate(-61.209 -25.986)" fill="#d94d15"/>
      <path id="Tracé_112" data-name="Tracé 112" d="M172.421,62.76c-.25-.533-.508-1.07-.778-1.59l4.992-2.535c.294.582.583,1.173.857,1.76Z" transform="translate(-59.189 -20.219)" fill="#d94d15"/>
      <path id="Tracé_113" data-name="Tracé 113" d="M29.831,50.791l-4.618-3.168c.373-.533.756-1.074,1.143-1.6l4.507,3.324c-.351.479-.7.962-1.031,1.445" transform="translate(-8.694 -15.87)" fill="#d94d15"/>
      <path id="Tracé_114" data-name="Tracé 114" d="M163.963,48.423c-.349-.471-.712-.945-1.075-1.408l4.384-3.478c.4.512.807,1.033,1.191,1.557Z" transform="translate(-56.17 -15.013)" fill="#d94d15"/>
      <path id="Tracé_115" data-name="Tracé 115" d="M36.8,42.059,32.644,38.3c.436-.48.892-.962,1.345-1.433l4.027,3.894c-.411.421-.82.86-1.217,1.3" transform="translate(-11.257 -12.714)" fill="#d94d15"/>
      <path id="Tracé_116" data-name="Tracé 116" d="M40.709,38.066l-3.894-4.023c.467-.45.949-.9,1.435-1.342l3.755,4.147c-.438.4-.871.809-1.3,1.218" transform="translate(-12.695 -11.277)" fill="#d94d15"/>
      <path id="Tracé_117" data-name="Tracé 117" d="M152.912,36.094c-.436-.4-.886-.789-1.338-1.169l3.614-4.278c.5.421,1,.854,1.479,1.293Z" transform="translate(-52.269 -10.568)" fill="#d94d15"/>
      <path id="Tracé_118" data-name="Tracé 118" d="M44.872,34.345l-3.62-4.271c.5-.421,1.008-.838,1.52-1.243l3.473,4.386c-.459.368-.922.748-1.373,1.128" transform="translate(-14.225 -9.942)" fill="#d94d15"/>
      <path id="Tracé_119" data-name="Tracé 119" d="M148.729,32.518c-.465-.368-.941-.731-1.414-1.078l3.319-4.5c.522.383,1.047.784,1.56,1.185Z" transform="translate(-50.8 -9.288)" fill="#d94d15"/>
      <path id="Tracé_120" data-name="Tracé 120" d="M58.725,24.979l-2.7-4.906c.571-.314,1.154-.619,1.731-.917l2.536,4.993c-.524.269-1.05.545-1.568.831" transform="translate(-19.32 -6.605)" fill="#d94d15"/>
      <path id="Tracé_121" data-name="Tracé 121" d="M129.955,21.317c-.542-.232-1.1-.454-1.656-.665l2.007-5.228c.613.235,1.231.483,1.831.74Z" transform="translate(-44.243 -5.319)" fill="#d94d15"/>
      <path id="Tracé_122" data-name="Tracé 122" d="M124.858,19.364c-.558-.195-1.126-.38-1.7-.554l1.654-5.352c.624.194,1.257.4,1.869.611Z" transform="translate(-42.471 -4.641)" fill="#d94d15"/>
      <path id="Tracé_123" data-name="Tracé 123" d="M74.189,18.586l-1.666-5.343c.619-.2,1.258-.38,1.89-.554l1.481,5.4c-.569.153-1.143.322-1.7.5" transform="translate(-25.009 -4.376)" fill="#d94d15"/>
      <path id="Tracé_124" data-name="Tracé 124" d="M79.608,17.164l-1.3-5.444c.632-.152,1.278-.3,1.916-.425l1.121,5.484c-.584.12-1.167.252-1.736.385" transform="translate(-27.003 -3.895)" fill="#d94d15"/>
      <path id="Tracé_125" data-name="Tracé 125" d="M114.365,16.548c-.58-.111-1.168-.223-1.748-.318l.916-5.522c.64.1,1.293.223,1.931.351Z" transform="translate(-38.835 -3.693)" fill="#d94d15"/>
      <path id="Tracé_126" data-name="Tracé 126" d="M96.294,15.126l-.192-5.6c.649-.025,1.312-.033,1.962-.033l.013,5.6c-.6,0-1.194.012-1.783.037" transform="translate(-33.14 -3.274)" fill="#d94d15"/>
      <path id="Tracé_127" data-name="Tracé 127" d="M98.223,176.48H98.2c-.643,0-1.3-.013-1.939-.037l.206-5.6c.572.021,1.157.029,1.733.029h.024v5.6l.019,0Z" transform="translate(-33.194 -58.915)" fill="#d94d15"/>
      <path id="Tracé_128" data-name="Tracé 128" d="M99.252,175.171l-.007,2.8h.007Z" transform="translate(-34.224 -60.406)" fill="#d94d15"/>
      <path id="Tracé_129" data-name="Tracé 129" d="M102.146,176.387l-.2-5.592c.575-.02,1.169-.054,1.749-.1l.419,5.583c-.654.048-1.314.087-1.963.107" transform="translate(-35.154 -58.863)" fill="#d94d15"/>
      <path id="Tracé_130" data-name="Tracé 130" d="M92.233,176.2c-.649-.045-1.3-.107-1.955-.178l.622-5.563c.577.062,1.164.115,1.747.157Z" transform="translate(-31.132 -58.782)" fill="#d94d15"/>
      <path id="Tracé_131" data-name="Tracé 131" d="M113.618,174.969l-1.036-5.5c.572-.111,1.15-.228,1.717-.356l1.244,5.455c-.636.145-1.283.281-1.925.4" transform="translate(-38.823 -58.317)" fill="#d94d15"/>
      <path id="Tracé_132" data-name="Tracé 132" d="M80.4,174.362c-.634-.145-1.276-.3-1.908-.471l1.441-5.41c.567.15,1.14.291,1.706.419Z" transform="translate(-27.069 -58.099)" fill="#d94d15"/>
      <path id="Tracé_133" data-name="Tracé 133" d="M119.251,173.618l-1.45-5.406c.565-.156,1.131-.317,1.686-.491l1.651,5.357c-.622.189-1.261.371-1.888.541" transform="translate(-40.623 -57.837)" fill="#d94d15"/>
      <path id="Tracé_134" data-name="Tracé 134" d="M74.62,172.8c-.626-.195-1.253-.4-1.87-.615l1.846-5.283c.549.189,1.114.376,1.67.549Z" transform="translate(-25.087 -57.556)" fill="#d94d15"/>
      <path id="Tracé_135" data-name="Tracé 135" d="M124.774,171.848l-1.848-5.286c.542-.187,1.1-.393,1.645-.608l2.046,5.208c-.609.24-1.226.471-1.844.686" transform="translate(-42.39 -57.228)" fill="#d94d15"/>
      <path id="Tracé_136" data-name="Tracé 136" d="M68.972,170.832c-.612-.239-1.221-.491-1.821-.756l2.242-5.129c.531.231,1.08.458,1.621.673Z" transform="translate(-23.156 -56.88)" fill="#d94d15"/>
      <path id="Tracé_137" data-name="Tracé 137" d="M130.149,169.671l-2.247-5.129c.533-.231,1.07-.475,1.589-.73l2.437,5.043c-.59.284-1.186.557-1.779.816" transform="translate(-44.106 -56.489)" fill="#d94d15"/>
      <path id="Tracé_138" data-name="Tracé 138" d="M135.337,167.107l-2.618-4.948c.512-.271,1.03-.556,1.533-.85l2.8,4.849c-.561.326-1.139.643-1.717.949" transform="translate(-45.767 -55.626)" fill="#d94d15"/>
      <path id="Tracé_139" data-name="Tracé 139" d="M58.22,165.682c-.565-.332-1.133-.669-1.685-1.016l2.982-4.737c.493.309,1,.615,1.507.9Z" transform="translate(-19.496 -55.15)" fill="#d94d15"/>
      <path id="Tracé_140" data-name="Tracé 140" d="M140.331,164.159l-2.984-4.737c.489-.313.985-.636,1.467-.962l3.159,4.621c-.541.368-1.089.731-1.642,1.078" transform="translate(-47.363 -54.643)" fill="#d94d15"/>
      <path id="Tracé_141" data-name="Tracé 141" d="M53.178,162.538c-.535-.368-1.078-.748-1.6-1.14l3.328-4.5c.474.352.955.694,1.432,1.017Z" transform="translate(-17.785 -54.104)" fill="#d94d15"/>
      <path id="Tracé_142" data-name="Tracé 142" d="M145.1,160.848l-3.327-4.5c.471-.343.933-.706,1.392-1.07l3.491,4.378c-.509.4-1.033.8-1.556,1.194" transform="translate(-48.888 -53.546)" fill="#d94d15"/>
      <path id="Tracé_143" data-name="Tracé 143" d="M43.907,155.224c-.478-.442-.948-.9-1.413-1.361l3.953-3.96c.417.416.842.822,1.269,1.221Z" transform="translate(-14.654 -51.692)" fill="#d94d15"/>
      <path id="Tracé_144" data-name="Tracé 144" d="M39.72,151.095c-.442-.48-.886-.975-1.31-1.466l4.245-3.654q.57.661,1.169,1.309Z" transform="translate(-13.245 -50.338)" fill="#d94d15"/>
      <path id="Tracé_145" data-name="Tracé 145" d="M35.867,146.68c-.4-.516-.8-1.033-1.2-1.557l4.5-3.328c.345.467.7.933,1.07,1.387Z" transform="translate(-11.956 -48.896)" fill="#d94d15"/>
      <path id="Tracé_146" data-name="Tracé 146" d="M161.384,144.382l-4.5-3.328c.345-.472.69-.955,1.019-1.433l4.625,3.16c-.372.536-.755,1.077-1.145,1.6" transform="translate(-54.1 -48.147)" fill="#d94d15"/>
      <path id="Tracé_147" data-name="Tracé 147" d="M164.648,139.564l-4.737-2.986c.311-.487.619-.991.909-1.5l4.85,2.808c-.33.565-.675,1.131-1.023,1.681" transform="translate(-55.144 -46.579)" fill="#d94d15"/>
      <path id="Tracé_148" data-name="Tracé 148" d="M29.246,137.078c-.326-.565-.646-1.144-.951-1.717l4.943-2.619c.274.513.56,1.025.851,1.529Z" transform="translate(-9.757 -45.775)" fill="#d94d15"/>
      <path id="Tracé_149" data-name="Tracé 149" d="M167.551,134.526,162.6,131.9c.273-.516.541-1.046.793-1.568l5.04,2.432c-.285.59-.582,1.185-.888,1.758" transform="translate(-56.073 -44.945)" fill="#d94d15"/>
      <path id="Tracé_150" data-name="Tracé 150" d="M24.183,126.642c-.243-.611-.472-1.23-.687-1.842l5.284-1.854q.284.824.611,1.648Z" transform="translate(-8.102 -42.397)" fill="#d94d15"/>
      <path id="Tracé_151" data-name="Tracé 151" d="M172.185,123.86l-5.286-1.846c.195-.557.384-1.115.551-1.677l5.351,1.652c-.191.624-.4,1.255-.617,1.87" transform="translate(-57.554 -41.497)" fill="#d94d15"/>
      <path id="Tracé_152" data-name="Tracé 152" d="M176.022,106.942l-5.565-.619c.065-.575.119-1.166.165-1.743l5.581.409c-.05.651-.111,1.308-.181,1.952" transform="translate(-58.78 -36.063)" fill="#d94d15"/>
      <path id="Tracé_153" data-name="Tracé 153" d="M19.163,104.132c-.054-.649-.091-1.309-.114-1.962l5.6-.206c.02.582.051,1.169.1,1.751Z" transform="translate(-6.569 -35.161)" fill="#d94d15"/>
      <path id="Tracé_154" data-name="Tracé 154" d="M170.8,95.262c-.023-.586-.056-1.173-.1-1.76l5.585-.421c.051.653.087,1.309.114,1.962Z" transform="translate(-58.862 -32.098)" fill="#d94d15"/>
      <path id="Tracé_155" data-name="Tracé 155" d="M25.4,87.136l-5.539-.818c.094-.645.2-1.3.328-1.941l5.5,1.032c-.111.567-.207,1.153-.292,1.727" transform="translate(-6.85 -29.097)" fill="#d94d15"/>
      <path id="Tracé_156" data-name="Tracé 156" d="M169.458,84.2c-.11-.57-.234-1.148-.361-1.714l5.452-1.251c.15.636.284,1.285.408,1.924Z" transform="translate(-58.312 -28.012)" fill="#d94d15"/>
      <path id="Tracé_157" data-name="Tracé 157" d="M27.861,76.3,22.51,74.654c.192-.624.4-1.255.617-1.874l5.285,1.846c-.191.549-.376,1.115-.55,1.673" transform="translate(-7.762 -25.097)" fill="#d94d15"/>
      <path id="Tracé_158" data-name="Tracé 158" d="M166.543,73.479c-.2-.549-.4-1.107-.615-1.648l5.205-2.052c.242.6.47,1.223.689,1.842Z" transform="translate(-57.219 -24.063)" fill="#d94d15"/>
      <path id="Tracé_159" data-name="Tracé 159" d="M164.513,68.326c-.235-.532-.481-1.069-.734-1.59l5.04-2.44c.283.582.557,1.185.822,1.779Z" transform="translate(-56.478 -22.172)" fill="#d94d15"/>
      <path id="Tracé_160" data-name="Tracé 160" d="M31.945,65.948,26.9,63.52c.282-.591.58-1.182.888-1.76l4.951,2.619c-.275.516-.539,1.044-.795,1.568" transform="translate(-9.277 -21.297)" fill="#d94d15"/>
      <path id="Tracé_161" data-name="Tracé 161" d="M162.12,63.351c-.275-.516-.559-1.033-.851-1.533l4.842-2.812c.329.565.647,1.144.955,1.718Z" transform="translate(-55.612 -20.348)" fill="#d94d15"/>
      <path id="Tracé_162" data-name="Tracé 162" d="M37.528,56.357,32.906,53.2c.364-.537.753-1.078,1.137-1.6l4.507,3.328c-.347.467-.69.951-1.021,1.429" transform="translate(-11.347 -17.794)" fill="#d94d15"/>
      <path id="Tracé_163" data-name="Tracé 163" d="M156.3,54.016c-.347-.471-.7-.938-1.07-1.392l4.369-3.5c.412.512.809,1.036,1.2,1.557Z" transform="translate(-53.528 -16.939)" fill="#d94d15"/>
      <path id="Tracé_164" data-name="Tracé 164" d="M40.844,51.91,36.47,48.425c.4-.512.828-1.02,1.251-1.516l4.247,3.651c-.379.447-.757.9-1.125,1.351" transform="translate(-12.576 -16.176)" fill="#d94d15"/>
      <path id="Tracé_165" data-name="Tracé 165" d="M152.894,49.711c-.38-.446-.774-.88-1.171-1.305l4.1-3.816c.441.479.885.97,1.309,1.462Z" transform="translate(-52.32 -15.376)" fill="#d94d15"/>
      <path id="Tracé_166" data-name="Tracé 166" d="M48.432,43.846l-3.811-4.1c.473-.442.971-.888,1.464-1.309l3.654,4.242c-.444.379-.881.776-1.307,1.172" transform="translate(-15.387 -13.253)" fill="#d94d15"/>
      <path id="Tracé_167" data-name="Tracé 167" d="M52.655,40.261l-3.5-4.373c.511-.409,1.033-.81,1.56-1.194l3.331,4.5c-.47.347-.938.706-1.392,1.069" transform="translate(-16.951 -11.964)" fill="#d94d15"/>
      <path id="Tracé_168" data-name="Tracé 168" d="M140.98,38.524c-.471-.347-.953-.69-1.432-1.016l3.151-4.629q.812.557,1.606,1.14Z" transform="translate(-48.122 -11.338)" fill="#d94d15"/>
      <path id="Tracé_169" data-name="Tracé 169" d="M136.508,35.442c-.5-.311-1-.615-1.508-.9l2.8-4.848c.565.322,1.133.668,1.689,1.015Z" transform="translate(-46.553 -10.238)" fill="#d94d15"/>
      <path id="Tracé_170" data-name="Tracé 170" d="M131.827,32.713q-.779-.409-1.571-.789l2.425-5.047c.59.285,1.181.582,1.759.888Z" transform="translate(-44.918 -9.268)" fill="#d94d15"/>
      <path id="Tracé_171" data-name="Tracé 171" d="M66.769,31.559l-2.437-5.042c.585-.28,1.185-.558,1.783-.817l2.245,5.129c-.533.231-1.066.479-1.591.731" transform="translate(-22.184 -8.862)" fill="#d94d15"/>
      <path id="Tracé_172" data-name="Tracé 172" d="M77.126,27.617l-1.65-5.348c.62-.186,1.258-.373,1.885-.541l1.455,5.41c-.563.149-1.13.314-1.69.48" transform="translate(-26.027 -7.493)" fill="#d94d15"/>
      <path id="Tracé_173" data-name="Tracé 173" d="M111.544,25.68c-.572-.1-1.157-.2-1.73-.284l.818-5.535c.647.091,1.3.2,1.941.322Z" transform="translate(-37.868 -6.849)" fill="#d94d15"/>
      <path id="Tracé_174" data-name="Tracé 174" d="M106.236,24.941c-.579-.062-1.167-.116-1.752-.157l.407-5.583c.651.05,1.309.111,1.956.178Z" transform="translate(-36.03 -6.621)" fill="#d94d15"/>
      <path id="Tracé_175" data-name="Tracé 175" d="M93.544,24.736l-.419-5.579c.651-.05,1.31-.083,1.961-.107l.212,5.592c-.582.025-1.172.054-1.755.095" transform="translate(-32.113 -6.569)" fill="#d94d15"/>
      <path id="Tracé_176" data-name="Tracé 176" d="M98.706,166.987c-.322,0-.651,0-.975-.009l.117-5.6c.582.013,1.181.013,1.757,0l.121,5.6c-.334.005-.679.009-1.02.009" transform="translate(-33.702 -55.65)" fill="#d94d15"/>
      <path id="Tracé_177" data-name="Tracé 177" d="M103.626,166.775l-.361-5.588c.58-.037,1.166-.087,1.747-.149l.6,5.568c-.656.069-1.323.123-1.982.169" transform="translate(-35.61 -55.532)" fill="#d94d15"/>
      <path id="Tracé_178" data-name="Tracé 178" d="M109.422,166.075l-.834-5.533c.577-.091,1.156-.191,1.726-.3l1.07,5.49c-.642.126-1.305.243-1.962.341" transform="translate(-37.446 -55.259)" fill="#d94d15"/>
      <path id="Tracé_179" data-name="Tracé 179" d="M81.661,164.9c-.647-.157-1.3-.326-1.932-.508L81.267,159c.565.16,1.131.31,1.7.446Z" transform="translate(-27.494 -54.831)" fill="#d94d15"/>
      <path id="Tracé_180" data-name="Tracé 180" d="M115.143,164.878l-1.313-5.444c.569-.137,1.137-.289,1.7-.45l1.547,5.386c-.638.181-1.286.354-1.931.508" transform="translate(-39.253 -54.824)" fill="#d94d15"/>
      <path id="Tracé_181" data-name="Tracé 181" d="M75.826,163.21c-.628-.206-1.262-.434-1.881-.673l2-5.224c.542.2,1.1.4,1.652.59Z" transform="translate(-25.499 -54.248)" fill="#d94d15"/>
      <path id="Tracé_182" data-name="Tracé 182" d="M70.169,161.051c-.612-.265-1.221-.545-1.817-.834l2.444-5.034c.525.256,1.063.5,1.6.734Z" transform="translate(-23.571 -53.513)" fill="#d94d15"/>
      <path id="Tracé_183" data-name="Tracé 183" d="M126.187,161.035l-2.228-5.139c.533-.23,1.069-.474,1.587-.727l2.447,5.032c-.593.288-1.2.573-1.807.834" transform="translate(-42.746 -53.509)" fill="#d94d15"/>
      <path id="Tracé_184" data-name="Tracé 184" d="M131.423,158.419l-2.663-4.927c.508-.273,1.022-.565,1.519-.862l2.873,4.8c-.566.339-1.15.67-1.729.987" transform="translate(-44.402 -52.633)" fill="#d94d15"/>
      <path id="Tracé_185" data-name="Tracé 185" d="M141.146,151.888l-3.466-4.394c.459-.36.914-.736,1.356-1.112l3.649,4.242c-.5.434-1.016.855-1.538,1.264" transform="translate(-47.478 -50.478)" fill="#d94d15"/>
      <path id="Tracé_186" data-name="Tracé 186" d="M54.66,151.887c-.521-.409-1.036-.831-1.541-1.264l3.651-4.244c.444.379.9.755,1.35,1.114Z" transform="translate(-18.318 -50.477)" fill="#d94d15"/>
      <path id="Tracé_187" data-name="Tracé 187" d="M145.568,148.031l-3.83-4.084c.424-.4.844-.814,1.251-1.227l4,3.915c-.465.475-.943.942-1.423,1.4" transform="translate(-48.877 -49.216)" fill="#d94d15"/>
      <path id="Tracé_188" data-name="Tracé 188" d="M50.1,148.025c-.478-.449-.961-.92-1.422-1.391l4-3.919c.407.417.827.83,1.251,1.227Z" transform="translate(-16.788 -49.214)" fill="#d94d15"/>
      <path id="Tracé_189" data-name="Tracé 189" d="M149.649,143.811l-4.162-3.742c.387-.434.774-.879,1.145-1.325l4.319,3.559c-.426.508-.861,1.016-1.3,1.508" transform="translate(-50.17 -47.845)" fill="#d94d15"/>
      <path id="Tracé_190" data-name="Tracé 190" d="M45.913,143.808c-.446-.5-.878-1-1.3-1.516l4.319-3.556c.374.446.754.9,1.145,1.327Z" transform="translate(-15.384 -47.842)" fill="#d94d15"/>
      <path id="Tracé_191" data-name="Tracé 191" d="M42.12,139.26c-.4-.523-.792-1.065-1.167-1.615l4.606-3.175c.333.479.677.954,1.029,1.42Z" transform="translate(-14.122 -46.371)" fill="#d94d15"/>
      <path id="Tracé_192" data-name="Tracé 192" d="M156.669,134.412l-4.737-2.978c.309-.491.61-1,.9-1.5l4.87,2.767c-.332.575-.678,1.153-1.03,1.715" transform="translate(-52.392 -44.805)" fill="#d94d15"/>
      <path id="Tracé_193" data-name="Tracé 193" d="M35.813,129.327c-.3-.587-.6-1.19-.874-1.789L40.03,125.2c.239.525.5,1.053.764,1.57Z" transform="translate(-12.048 -43.173)" fill="#d94d15"/>
      <path id="Tracé_194" data-name="Tracé 194" d="M159.561,129.3l-4.982-2.553c.269-.523.524-1.053.766-1.585l5.091,2.342c-.279.6-.573,1.205-.874,1.8" transform="translate(-53.305 -43.16)" fill="#d94d15"/>
      <path id="Tracé_195" data-name="Tracé 195" d="M33.352,124.01c-.246-.611-.486-1.235-.713-1.863l5.268-1.891c.2.545.411,1.095.627,1.631Z" transform="translate(-11.255 -41.469)" fill="#d94d15"/>
      <path id="Tracé_196" data-name="Tracé 196" d="M31.379,118.5c-.2-.635-.377-1.28-.549-1.921l5.41-1.432c.149.565.313,1.131.491,1.689Z" transform="translate(-10.631 -39.706)" fill="#d94d15"/>
      <path id="Tracé_197" data-name="Tracé 197" d="M29.915,112.833c-.141-.641-.269-1.3-.384-1.958l5.518-.958c.1.579.212,1.153.338,1.718Z" transform="translate(-10.183 -37.904)" fill="#d94d15"/>
      <path id="Tracé_198" data-name="Tracé 198" d="M165.459,112.774l-5.469-1.188c.123-.57.236-1.152.333-1.718l5.516.951c-.111.649-.237,1.309-.38,1.956" transform="translate(-55.171 -37.887)" fill="#d94d15"/>
      <path id="Tracé_199" data-name="Tracé 199" d="M28.962,107.078c-.082-.653-.155-1.322-.212-1.983l5.575-.479c.054.582.115,1.164.189,1.743Z" transform="translate(-9.914 -36.076)" fill="#d94d15"/>
      <path id="Tracé_200" data-name="Tracé 200" d="M166.454,107.011l-5.554-.71c.071-.579.135-1.164.186-1.747l5.575.478c-.054.662-.125,1.326-.207,1.979" transform="translate(-55.485 -36.054)" fill="#d94d15"/>
      <path id="Tracé_201" data-name="Tracé 201" d="M28.527,101.264c-.027-.662-.041-1.325-.046-1.994l5.6,0c0,.587.017,1.177.037,1.755Z" transform="translate(-9.821 -34.231)" fill="#d94d15"/>
      <path id="Tracé_202" data-name="Tracé 202" d="M161.286,95.234c-.027-.582-.066-1.173-.118-1.747L166.747,93c.063.653.1,1.321.136,1.986Z" transform="translate(-55.577 -32.07)" fill="#d94d15"/>
      <path id="Tracé_203" data-name="Tracé 203" d="M35.559,84.341,30.083,83.16c.14-.648.3-1.3.465-1.941l5.416,1.42c-.147.563-.282,1.141-.4,1.7" transform="translate(-10.374 -28.008)" fill="#d94d15"/>
      <path id="Tracé_204" data-name="Tracé 204" d="M159.75,84.157c-.128-.566-.267-1.14-.416-1.7l5.409-1.437c.169.636.331,1.293.472,1.937Z" transform="translate(-54.945 -27.938)" fill="#d94d15"/>
      <path id="Tracé_205" data-name="Tracé 205" d="M36.977,78.951l-5.35-1.656c.2-.632.409-1.272.639-1.9l5.269,1.883q-.3.83-.558,1.673" transform="translate(-10.906 -25.999)" fill="#d94d15"/>
      <path id="Tracé_206" data-name="Tracé 206" d="M158.3,78.765c-.18-.554-.366-1.114-.561-1.664l5.267-1.9q.341.941.631,1.891Z" transform="translate(-54.396 -25.934)" fill="#d94d15"/>
      <path id="Tracé_207" data-name="Tracé 207" d="M156.414,73.532c-.223-.533-.457-1.074-.7-1.6l5.078-2.35c.275.6.546,1.213.791,1.825Z" transform="translate(-53.698 -23.995)" fill="#d94d15"/>
      <path id="Tracé_208" data-name="Tracé 208" d="M41.213,68.628l-4.981-2.549c.3-.59.62-1.185.947-1.759l4.865,2.763c-.287.508-.566,1.024-.832,1.545" transform="translate(-12.494 -22.18)" fill="#d94d15"/>
      <path id="Tracé_209" data-name="Tracé 209" d="M154.1,68.5c-.263-.512-.541-1.037-.834-1.54l4.859-2.776c.333.575.649,1.166.957,1.751Z" transform="translate(-52.852 -22.132)" fill="#d94d15"/>
      <path id="Tracé_210" data-name="Tracé 210" d="M47.165,59.228,42.69,55.857c.4-.528.811-1.057,1.235-1.573l4.319,3.565c-.368.449-.732.913-1.08,1.379" transform="translate(-14.721 -18.719)" fill="#d94d15"/>
      <path id="Tracé_211" data-name="Tracé 211" d="M148.28,59.13c-.349-.463-.714-.921-1.086-1.376l4.316-3.563c.425.512.835,1.036,1.238,1.561Z" transform="translate(-50.758 -18.687)" fill="#d94d15"/>
      <path id="Tracé_212" data-name="Tracé 212" d="M50.726,54.96l-4.169-3.742c.442-.491.9-.983,1.363-1.454l4,3.911c-.4.417-.807.85-1.2,1.284" transform="translate(-16.055 -17.161)" fill="#d94d15"/>
      <path id="Tracé_213" data-name="Tracé 213" d="M54.643,51.018l-3.835-4.084c.482-.451.979-.9,1.478-1.331l3.657,4.242c-.438.375-.879.776-1.3,1.172" transform="translate(-17.521 -15.726)" fill="#d94d15"/>
      <path id="Tracé_214" data-name="Tracé 214" d="M141.011,50.931c-.426-.392-.866-.784-1.31-1.164l3.647-4.25c.5.43,1.005.88,1.487,1.33Z" transform="translate(-48.175 -15.696)" fill="#d94d15"/>
      <path id="Tracé_215" data-name="Tracé 215" d="M58.884,47.427l-3.472-4.394c.521-.408,1.053-.813,1.591-1.2l3.277,4.534c-.468.343-.938.7-1.4,1.057" transform="translate(-19.108 -14.426)" fill="#d94d15"/>
      <path id="Tracé_216" data-name="Tracé 216" d="M136.9,47.353c-.454-.364-.925-.715-1.4-1.057l3.273-4.544c.537.389,1.076.789,1.594,1.2Z" transform="translate(-46.723 -14.398)" fill="#d94d15"/>
      <path id="Tracé_217" data-name="Tracé 217" d="M63.425,44.225l-3.079-4.675c.549-.363,1.118-.718,1.682-1.061l2.881,4.8c-.5.3-1,.616-1.485.938" transform="translate(-20.81 -13.272)" fill="#d94d15"/>
      <path id="Tracé_218" data-name="Tracé 218" d="M132.506,44.149c-.486-.314-.989-.628-1.487-.929l2.87-4.807c.566.343,1.135.7,1.689,1.057Z" transform="translate(-45.181 -13.246)" fill="#d94d15"/>
      <path id="Tracé_219" data-name="Tracé 219" d="M78.472,37.134l-1.783-5.311c.628-.206,1.268-.408,1.907-.591l1.545,5.381c-.556.161-1.117.335-1.669.52" transform="translate(-26.445 -10.77)" fill="#d94d15"/>
      <path id="Tracé_220" data-name="Tracé 220" d="M117.977,37.08c-.556-.185-1.117-.359-1.677-.516l1.536-5.381c.635.178,1.274.375,1.91.582Z" transform="translate(-40.105 -10.753)" fill="#d94d15"/>
      <path id="Tracé_221" data-name="Tracé 221" d="M83.855,35.671l-1.312-5.444c.637-.152,1.3-.3,1.945-.425l1.082,5.5c-.577.107-1.147.235-1.716.371" transform="translate(-28.464 -10.277)" fill="#d94d15"/>
      <path id="Tracé_222" data-name="Tracé 222" d="M112.816,35.629c-.569-.132-1.144-.26-1.716-.367l1.063-5.5c.653.124,1.309.268,1.951.421Z" transform="translate(-38.312 -10.264)" fill="#d94d15"/>
      <path id="Tracé_223" data-name="Tracé 223" d="M89.352,34.678l-.842-5.534c.654-.1,1.319-.181,1.975-.256l.6,5.567c-.578.058-1.163.137-1.735.223" transform="translate(-30.522 -9.962)" fill="#d94d15"/>
      <path id="Tracé_224" data-name="Tracé 224" d="M102.221,34.155c-.582-.033-1.168-.058-1.752-.07l.113-5.6c.66.016,1.327.041,1.986.083Z" transform="translate(-34.646 -9.823)" fill="#d94d15"/>
      <path id="Tracé_225" data-name="Tracé 225" d="M100.7,157.453l-.136-5.6c.565-.011,1.15-.041,1.718-.087l.417,5.585c-.662.05-1.332.083-2,.1" transform="translate(-34.679 -52.335)" fill="#d94d15"/>
      <path id="Tracé_226" data-name="Tracé 226" d="M90.6,156.941c-.656-.083-1.322-.181-1.976-.293l.96-5.518c.566.1,1.138.185,1.7.251Z" transform="translate(-30.561 -52.116)" fill="#d94d15"/>
      <path id="Tracé_227" data-name="Tracé 227" d="M106.493,156.931l-.691-5.555c.567-.074,1.141-.156,1.7-.259l.966,5.518c-.655.115-1.319.215-1.979.3" transform="translate(-36.485 -52.111)" fill="#d94d15"/>
      <path id="Tracé_228" data-name="Tracé 228" d="M84.607,155.853c-.649-.153-1.3-.314-1.941-.491l1.51-5.4c.549.16,1.114.3,1.666.428Z" transform="translate(-28.507 -51.714)" fill="#d94d15"/>
      <path id="Tracé_229" data-name="Tracé 229" d="M112.214,155.833l-1.243-5.451c.558-.128,1.117-.269,1.668-.427l1.514,5.39c-.639.178-1.286.343-1.939.487" transform="translate(-38.267 -51.711)" fill="#d94d15"/>
      <path id="Tracé_230" data-name="Tracé 230" d="M78.755,154.2c-.63-.212-1.267-.443-1.886-.686l2.045-5.216c.533.214,1.076.408,1.623.59Z" transform="translate(-26.508 -51.138)" fill="#d94d15"/>
      <path id="Tracé_231" data-name="Tracé 231" d="M117.811,154.178l-1.784-5.311c.542-.178,1.084-.377,1.615-.586l2.047,5.212c-.617.244-1.251.479-1.878.686" transform="translate(-40.011 -51.133)" fill="#d94d15"/>
      <path id="Tracé_232" data-name="Tracé 232" d="M73.1,151.985c-.605-.269-1.213-.561-1.806-.867l2.553-4.982c.512.261,1.034.513,1.555.749Z" transform="translate(-24.586 -50.394)" fill="#d94d15"/>
      <path id="Tracé_233" data-name="Tracé 233" d="M123.211,151.97l-2.308-5.1c.524-.235,1.042-.486,1.546-.751l2.56,4.986c-.592.3-1.192.594-1.8.866" transform="translate(-41.692 -50.387)" fill="#d94d15"/>
      <path id="Tracé_234" data-name="Tracé 234" d="M67.713,149.249c-.577-.331-1.15-.682-1.711-1.046l3.04-4.695c.482.306.978.612,1.471.9Z" transform="translate(-22.76 -49.488)" fill="#d94d15"/>
      <path id="Tracé_235" data-name="Tracé 235" d="M128.372,149.241l-2.8-4.845c.494-.285.988-.586,1.466-.9l3.042,4.7c-.556.356-1.13.71-1.7,1.042" transform="translate(-43.301 -49.484)" fill="#d94d15"/>
      <path id="Tracé_236" data-name="Tracé 236" d="M62.645,146.021c-.539-.389-1.078-.8-1.595-1.215l3.492-4.373c.446.36.909.71,1.372,1.04Z" transform="translate(-21.053 -48.427)" fill="#d94d15"/>
      <path id="Tracé_237" data-name="Tracé 237" d="M133.244,146.013l-3.265-4.546c.463-.33.921-.682,1.365-1.042l3.493,4.378c-.516.417-1.051.816-1.593,1.209" transform="translate(-44.822 -48.424)" fill="#d94d15"/>
      <path id="Tracé_238" data-name="Tracé 238" d="M137.78,142.323l-3.7-4.2c.427-.38.85-.773,1.262-1.172l3.9,4.009c-.47.463-.968.921-1.466,1.359" transform="translate(-46.237 -47.228)" fill="#d94d15"/>
      <path id="Tracé_239" data-name="Tracé 239" d="M53.645,138.209c-.45-.487-.9-1-1.324-1.5l4.286-3.6c.366.434.749.873,1.139,1.29Z" transform="translate(-18.042 -45.901)" fill="#d94d15"/>
      <path id="Tracé_240" data-name="Tracé 240" d="M141.939,138.2l-4.1-3.807c.393-.417.773-.856,1.147-1.292l4.284,3.6c-.43.512-.878,1.016-1.328,1.5" transform="translate(-47.531 -45.899)" fill="#d94d15"/>
      <path id="Tracé_241" data-name="Tracé 241" d="M49.8,133.705c-.4-.529-.793-1.074-1.171-1.619l4.623-3.163c.324.471.662.945,1,1.395Z" transform="translate(-16.77 -44.458)" fill="#d94d15"/>
      <path id="Tracé_242" data-name="Tracé 242" d="M145.681,133.694l-4.461-3.382c.347-.454.683-.926,1.008-1.4l4.623,3.159c-.376.55-.769,1.094-1.171,1.62" transform="translate(-48.698 -44.455)" fill="#d94d15"/>
      <path id="Tracé_243" data-name="Tracé 243" d="M46.45,128.867c-.347-.571-.686-1.153-1-1.732l4.914-2.688c.271.5.56,1,.861,1.492Z" transform="translate(-15.672 -42.914)" fill="#d94d15"/>
      <path id="Tracé_244" data-name="Tracé 244" d="M43.615,123.729c-.288-.594-.563-1.205-.824-1.812l5.159-2.186c.219.525.458,1.05.709,1.566Z" transform="translate(-14.756 -41.288)" fill="#d94d15"/>
      <path id="Tracé_245" data-name="Tracé 245" d="M151.748,123.7l-5.043-2.435c.25-.517.49-1.038.71-1.57l5.155,2.18c-.26.61-.534,1.226-.823,1.825" transform="translate(-50.59 -41.276)" fill="#d94d15"/>
      <path id="Tracé_246" data-name="Tracé 246" d="M41.346,118.361c-.229-.627-.447-1.268-.639-1.9l5.344-1.656c.17.545.356,1.094.551,1.626Z" transform="translate(-14.037 -39.591)" fill="#d94d15"/>
      <path id="Tracé_247" data-name="Tracé 247" d="M154.012,118.3l-5.262-1.912c.195-.537.383-1.086.548-1.635l5.353,1.647c-.195.636-.411,1.277-.639,1.9" transform="translate(-51.295 -39.571)" fill="#d94d15"/>
      <path id="Tracé_248" data-name="Tracé 248" d="M39.637,112.784c-.159-.645-.31-1.3-.446-1.952l5.491-1.107c.113.561.24,1.128.381,1.675Z" transform="translate(-13.515 -37.837)" fill="#d94d15"/>
      <path id="Tracé_249" data-name="Tracé 249" d="M155.73,112.722l-5.429-1.379c.137-.554.266-1.116.379-1.678l5.491,1.1c-.128.656-.283,1.309-.44,1.954" transform="translate(-51.83 -37.817)" fill="#d94d15"/>
      <path id="Tracé_250" data-name="Tracé 250" d="M38.534,107.071c-.1-.656-.181-1.322-.247-1.983l5.57-.553c.056.565.129,1.14.214,1.705Z" transform="translate(-13.203 -36.048)" fill="#d94d15"/>
      <path id="Tracé_251" data-name="Tracé 251" d="M156.871,107.007l-5.535-.826c.085-.565.153-1.14.212-1.709l5.569.549c-.064.665-.151,1.331-.246,1.986" transform="translate(-52.187 -36.026)" fill="#d94d15"/>
      <path id="Tracé_252" data-name="Tracé 252" d="M157.444,101.177l-5.588-.278c.027-.565.037-1.148.037-1.722V99.1h5.6v.082c0,.665-.016,1.334-.051,2" transform="translate(-52.366 -34.172)" fill="#d94d15"/>
      <path id="Tracé_253" data-name="Tracé 253" d="M43.647,95.463l-5.594-.273c.027-.661.081-1.33.147-1.995l5.569.55c-.054.565-.1,1.139-.122,1.718" transform="translate(-13.122 -32.137)" fill="#d94d15"/>
      <path id="Tracé_254" data-name="Tracé 254" d="M151.779,95.282c-.033-.565-.077-1.148-.134-1.718l5.569-.558c.067.657.121,1.331.155,1.991Z" transform="translate(-52.293 -32.072)" fill="#d94d15"/>
      <path id="Tracé_255" data-name="Tracé 255" d="M44.185,89.949l-5.538-.818c.1-.656.212-1.322.34-1.974l5.491,1.1c-.11.557-.211,1.128-.293,1.689" transform="translate(-13.327 -30.055)" fill="#d94d15"/>
      <path id="Tracé_256" data-name="Tracé 256" d="M45.266,84.538l-5.428-1.371c.166-.644.347-1.292.54-1.928l5.353,1.644c-.169.549-.322,1.1-.465,1.656" transform="translate(-13.738 -28.015)" fill="#d94d15"/>
      <path id="Tracé_257" data-name="Tracé 257" d="M150.026,84.369c-.145-.553-.3-1.114-.472-1.66l5.347-1.66c.195.635.383,1.28.544,1.928Z" transform="translate(-51.572 -27.949)" fill="#d94d15"/>
      <path id="Tracé_258" data-name="Tracé 258" d="M46.9,79.268l-5.266-1.912c.228-.628.476-1.255.733-1.867l5.162,2.173q-.34.787-.63,1.606" transform="translate(-14.357 -26.032)" fill="#d94d15"/>
      <path id="Tracé_259" data-name="Tracé 259" d="M148.384,79.1c-.2-.532-.406-1.07-.63-1.594l5.154-2.188c.254.611.5,1.238.733,1.857Z" transform="translate(-50.952 -25.973)" fill="#d94d15"/>
      <path id="Tracé_260" data-name="Tracé 260" d="M49.053,74.189l-5.045-2.424c.286-.6.6-1.2.916-1.784l4.916,2.676c-.273.5-.539,1.02-.787,1.532" transform="translate(-15.176 -24.132)" fill="#d94d15"/>
      <path id="Tracé_261" data-name="Tracé 261" d="M146.254,74.054c-.25-.507-.509-1.023-.791-1.523l4.911-2.689c.317.582.627,1.181.916,1.771Z" transform="translate(-50.162 -24.084)" fill="#d94d15"/>
      <path id="Tracé_262" data-name="Tracé 262" d="M51.706,69.363l-4.774-2.915c.347-.566.713-1.132,1.086-1.681l4.627,3.151c-.329.474-.64.962-.939,1.445" transform="translate(-16.184 -22.334)" fill="#d94d15"/>
      <path id="Tracé_263" data-name="Tracé 263" d="M143.654,69.25c-.3-.487-.612-.97-.934-1.441l4.617-3.168c.373.55.742,1.11,1.092,1.677Z" transform="translate(-49.216 -22.291)" fill="#d94d15"/>
      <path id="Tracé_264" data-name="Tracé 264" d="M54.834,64.841l-4.466-3.381c.407-.529.824-1.057,1.249-1.566l4.289,3.6c-.362.442-.726.892-1.072,1.35" transform="translate(-17.369 -20.654)" fill="#d94d15"/>
      <path id="Tracé_265" data-name="Tracé 265" d="M58.4,60.658,54.3,56.85c.448-.487.919-.967,1.394-1.437L59.6,59.419q-.616.608-1.2,1.24" transform="translate(-18.724 -19.109)" fill="#d94d15"/>
      <path id="Tracé_266" data-name="Tracé 266" d="M137.166,60.57c-.393-.417-.793-.83-1.209-1.231l3.907-4.014c.478.466.948.945,1.4,1.429Z" transform="translate(-46.883 -19.078)" fill="#d94d15"/>
      <path id="Tracé_267" data-name="Tracé 267" d="M62.367,56.856l-3.715-4.192c.5-.438,1.016-.872,1.533-1.284l3.5,4.369c-.446.358-.89.731-1.316,1.107" transform="translate(-20.226 -17.718)" fill="#d94d15"/>
      <path id="Tracé_268" data-name="Tracé 268" d="M133.334,56.779c-.428-.38-.873-.751-1.323-1.107l3.49-4.382c.522.417,1.036.847,1.536,1.285Z" transform="translate(-45.523 -17.687)" fill="#d94d15"/>
      <path id="Tracé_269" data-name="Tracé 269" d="M66.7,53.477l-3.277-4.538c.535-.389,1.091-.765,1.647-1.128l3.046,4.7c-.476.314-.956.636-1.416.97" transform="translate(-21.87 -16.487)" fill="#d94d15"/>
      <path id="Tracé_270" data-name="Tracé 270" d="M129.17,53.4c-.462-.335-.941-.656-1.422-.97l3.033-4.7c.561.364,1.117.744,1.658,1.128Z" transform="translate(-44.053 -16.459)" fill="#d94d15"/>
      <path id="Tracé_271" data-name="Tracé 271" d="M124.707,50.485c-.5-.281-1.008-.561-1.514-.822l2.552-4.984c.591.305,1.181.627,1.76.958Z" transform="translate(-42.482 -15.407)" fill="#d94d15"/>
      <path id="Tracé_272" data-name="Tracé 272" d="M76.27,48.109l-2.315-5.1c.6-.273,1.219-.537,1.838-.781l2.054,5.212c-.529.206-1.059.433-1.578.665" transform="translate(-25.503 -14.563)" fill="#d94d15"/>
      <path id="Tracé_273" data-name="Tracé 273" d="M81.418,46.179l-1.788-5.3c.626-.211,1.272-.413,1.914-.59l1.518,5.385c-.548.157-1.1.33-1.644.508" transform="translate(-27.46 -13.892)" fill="#d94d15"/>
      <path id="Tracé_274" data-name="Tracé 274" d="M115.056,46.126c-.54-.181-1.094-.351-1.646-.508l1.508-5.39c.639.181,1.285.375,1.912.586Z" transform="translate(-39.108 -13.872)" fill="#d94d15"/>
      <path id="Tracé_275" data-name="Tracé 275" d="M86.757,44.776,85.512,39.32c.643-.149,1.305-.281,1.958-.4l.972,5.51c-.564.1-1.127.215-1.685.343" transform="translate(-29.488 -13.422)" fill="#d94d15"/>
      <path id="Tracé_276" data-name="Tracé 276" d="M109.978,44.742c-.553-.128-1.121-.24-1.689-.339l.96-5.516c.653.115,1.314.247,1.958.392Z" transform="translate(-37.342 -13.409)" fill="#d94d15"/>
      <path id="Tracé_277" data-name="Tracé 277" d="M104.793,43.894c-.565-.07-1.147-.124-1.713-.165l.4-5.587c.667.049,1.332.115,1.986.195Z" transform="translate(-35.546 -13.153)" fill="#d94d15"/>
      <path id="Tracé_278" data-name="Tracé 278" d="M97.742,43.6,97.6,38c.662-.012,1.337-.016,2,0l-.132,5.6c-.576-.016-1.15-.012-1.725,0" transform="translate(-33.655 -13.099)" fill="#d94d15"/>
      <rect id="Rectangle_106" data-name="Rectangle 106" width="2.402" height="17.246" transform="translate(139.012 30.519)" fill="#28367b"/>
      <path id="Tracé_279" data-name="Tracé 279" d="M235.216,46.582V63.828h-1.9L221.956,50.777V63.828H219.53V46.582h1.939q1.646,2.007,3.172,3.77t3.089,3.461c.848.958,1.7,1.92,2.532,2.887s1.682,1.941,2.53,2.924V46.582Z" transform="translate(-75.703 -16.063)" fill="#28367b"/>
      <path id="Tracé_280" data-name="Tracé 280" d="M256.272,55.8a4.786,4.786,0,0,1,1.043,3.246,4.606,4.606,0,0,1-1.508,3.444,5.059,5.059,0,0,1-3.628,1.437,6.865,6.865,0,0,1-2.773-.565c-.383-.174-.732-.343-1.072-.525a6.367,6.367,0,0,1-.958-.628V59.282c.423.314.787.578,1.09.8a9.031,9.031,0,0,0,.82.545c.235.136.43.264.609.355s.332.174.47.239a3.87,3.87,0,0,0,1.6.373,2.9,2.9,0,0,0,2.046-.752,2.489,2.489,0,0,0,.807-1.863,2.67,2.67,0,0,0-.181-1.037,2,2,0,0,0-.529-.734,7.555,7.555,0,0,0-1.1-.665,10.966,10.966,0,0,0-1.658-.665,8.078,8.078,0,0,1-3.083-1.755,3.5,3.5,0,0,1-.838-1.363,5.043,5.043,0,0,1-.275-1.718,4.369,4.369,0,0,1,1.559-3.366,5.038,5.038,0,0,1,3.6-1.413,7.112,7.112,0,0,1,2.637.446,6.777,6.777,0,0,1,.951.389,5.482,5.482,0,0,1,.68.453v2.743c-.32-.19-.466-.351-.7-.487s-.43-.248-.6-.343-.332-.178-.482-.239-.3-.153-.455-.227a4.084,4.084,0,0,0-1.887-.4,2.828,2.828,0,0,0-1.979.706,2.33,2.33,0,0,0-.636,2.623,1.693,1.693,0,0,0,.429.6,8,8,0,0,0,2.441,1.272,16.057,16.057,0,0,1,2.144.934,5.213,5.213,0,0,1,1.41,1.069" transform="translate(-85.231 -15.953)" fill="#28367b"/>
      <path id="Tracé_281" data-name="Tracé 281" d="M279.684,46.582V48.8h-6.026V63.828h-2.423V48.8H265.2V46.582Z" transform="translate(-91.453 -16.063)" fill="#28367b"/>
      <rect id="Rectangle_107" data-name="Rectangle 107" width="2.401" height="17.246" transform="translate(190.644 30.519)" fill="#28367b"/>
      <path id="Tracé_282" data-name="Tracé 282" d="M312.814,46.582V48.8h-6.023V63.828h-2.437V48.8h-6.017V46.582Z" transform="translate(-102.879 -16.063)" fill="#28367b"/>
      <path id="Tracé_283" data-name="Tracé 283" d="M338.742,46.582v9.676a9.159,9.159,0,0,1-.493,3.06,7.2,7.2,0,0,1-1.508,2.5,6.882,6.882,0,0,1-5.294,2.218,6.958,6.958,0,0,1-5.275-2.143,7.662,7.662,0,0,1-2.056-5.509v-9.8h2.435v9.709a7.124,7.124,0,0,0,.333,2.3,4.731,4.731,0,0,0,1.007,1.677,4.6,4.6,0,0,0,3.576,1.437A4.457,4.457,0,0,0,335,60.218a5.267,5.267,0,0,0,.979-1.731,7.23,7.23,0,0,0,.34-2.325v-9.58Z" transform="translate(-111.768 -16.063)" fill="#28367b"/>
      <path id="Tracé_284" data-name="Tracé 284" d="M364.6,46.582V48.8h-6.028V63.828h-2.434V48.8h-6.016V46.582Z" transform="translate(-120.737 -16.063)" fill="#28367b"/>
      <path id="Tracé_285" data-name="Tracé 285" d="M402.672,46.582V63.828h-2.419V50.6l-5.515,6.839L389.2,50.6V63.828h-2.417V46.582H388.9l5.84,7.137,5.822-7.137Z" transform="translate(-133.379 -16.063)" fill="#28367b"/>
      <path id="Tracé_286" data-name="Tracé 286" d="M430.216,48.78a8.849,8.849,0,0,1,0,12.6,9.515,9.515,0,0,1-12.932.025,8.926,8.926,0,0,1-.019-12.6,9.548,9.548,0,0,1,12.951-.025M428.4,59.674a6.422,6.422,0,0,0,0-9.181,6.552,6.552,0,0,0-11.205,4.6,6.208,6.208,0,0,0,1.882,4.58,6.626,6.626,0,0,0,9.323,0" transform="translate(-142.996 -15.953)" fill="#28367b"/>
      <path id="Tracé_287" data-name="Tracé 287" d="M461.761,46.582V63.828h-1.91L448.5,50.777V63.828h-2.427V46.582h1.94q1.637,2.007,3.176,3.77c1.02,1.177,2.045,2.329,3.088,3.461.85.958,1.688,1.92,2.526,2.887s1.69,1.941,2.532,2.924V46.582Z" transform="translate(-153.823 -16.063)" fill="#28367b"/>
      <path id="Tracé_288" data-name="Tracé 288" d="M486.625,48.891a7.446,7.446,0,0,1,1.895,2.759,9.788,9.788,0,0,1,.622,3.577,8.418,8.418,0,0,1-2.4,6.19,7.743,7.743,0,0,1-2.9,1.821,11.428,11.428,0,0,1-3.768.591H473.6V46.582h6.319a11.779,11.779,0,0,1,3.763.566,8.2,8.2,0,0,1,2.943,1.743m-1.858,10.968a6.031,6.031,0,0,0,1.858-4.633,6.161,6.161,0,0,0-1.836-4.659A6.91,6.91,0,0,0,479.8,48.8h-3.759V61.606h3.713a7.022,7.022,0,0,0,5.017-1.747" transform="translate(-163.317 -16.063)" fill="#28367b"/>
      <path id="Tracé_289" data-name="Tracé 289" d="M516.4,48.78a8.841,8.841,0,0,1,0,12.6,9.512,9.512,0,0,1-12.93.025,8.93,8.93,0,0,1-.019-12.6A9.546,9.546,0,0,1,516.4,48.78m-1.815,10.894a6.434,6.434,0,0,0,0-9.181,6.56,6.56,0,0,0-11.209,4.6,6.211,6.211,0,0,0,1.88,4.58,6.634,6.634,0,0,0,9.329,0" transform="translate(-172.718 -15.953)" fill="#28367b"/>
      <path id="Tracé_290" data-name="Tracé 290" d="M542.5,58.29l3.6,5.538h-2.87l-2.992-4.675c-.3-.451-.573-.863-.842-1.247a10.357,10.357,0,0,0-.783-1,2.537,2.537,0,0,0-2.049-.784H534.7v7.71h-2.422V46.582h4.637a9.809,9.809,0,0,1,2.434.281,5.556,5.556,0,0,1,1.905.9,3.922,3.922,0,0,1,1.239,1.561,5.024,5.024,0,0,1,.4,2.036,3.944,3.944,0,0,1-1.078,2.9,7.032,7.032,0,0,1-1.441,1.135c.131.128.246.26.366.4s.242.3.368.466c.252.368.493.71.727,1.036.215.334.44.665.664,1m-2.987-5.067a2.3,2.3,0,0,0,.64-.777,2.392,2.392,0,0,0,.222-1.1,2.195,2.195,0,0,0-.844-1.838,4.346,4.346,0,0,0-2.636-.706h-2.2v5.1h2.07a6.464,6.464,0,0,0,1.614-.174,3.335,3.335,0,0,0,1.13-.508" transform="translate(-183.549 -16.063)" fill="#28367b"/>
      <path id="Tracé_291" data-name="Tracé 291" d="M225.166,88.278a7.568,7.568,0,0,1,1.9,2.759,9.71,9.71,0,0,1,.626,3.577,8.453,8.453,0,0,1-2.4,6.191,7.662,7.662,0,0,1-2.9,1.816,11.375,11.375,0,0,1-3.768.591h-6.471V85.966h6.309a11.752,11.752,0,0,1,3.768.57,8.164,8.164,0,0,1,2.944,1.742m-1.859,10.977a6.05,6.05,0,0,0,1.859-4.641,6.143,6.143,0,0,0-1.838-4.655,6.87,6.87,0,0,0-4.992-1.775h-3.772V101h3.724a7.072,7.072,0,0,0,5.019-1.743" transform="translate(-73.156 -29.645)" fill="#28367b"/>
      <path id="Tracé_292" data-name="Tracé 292" d="M249.538,101v2.214H239.381V85.966h9.989v2.217h-7.562v5.253h7.354v2.212h-7.354V101Z" transform="translate(-82.548 -29.645)" fill="#28367b"/>
      <path id="Tracé_293" data-name="Tracé 293" d="M279.982,97.677l3.6,5.535h-2.874l-2.995-4.663c-.289-.458-.572-.871-.834-1.259a12.472,12.472,0,0,0-.787-1.008,2.571,2.571,0,0,0-2.053-.776h-1.854v7.706h-2.435V85.966H274.4a10.021,10.021,0,0,1,2.426.285,5.352,5.352,0,0,1,1.9.9,4.045,4.045,0,0,1,1.24,1.544,5.025,5.025,0,0,1,.411,2.057,3.96,3.96,0,0,1-1.078,2.891,7.1,7.1,0,0,1-1.449,1.124c.128.136.254.264.368.409s.243.3.366.47c.259.364.488.7.719,1.034s.451.668.673.994m-2.991-5.066a2.367,2.367,0,0,0,.656-.784,2.558,2.558,0,0,0,.21-1.1,2.211,2.211,0,0,0-.842-1.833,4.434,4.434,0,0,0-2.641-.706h-2.184v5.109h2.066a6.419,6.419,0,0,0,1.618-.178,3.151,3.151,0,0,0,1.117-.5" transform="translate(-93.022 -29.645)" fill="#28367b"/>
      <path id="Tracé_294" data-name="Tracé 294" d="M303.491,101v2.214H293.346V85.966h9.987v2.217h-7.561v5.253h7.342v2.212h-7.342V101Z" transform="translate(-101.158 -29.645)" fill="#28367b"/>
      <path id="Tracé_295" data-name="Tracé 295" d="M327.347,98.889v2.638a14.669,14.669,0,0,1-1.529.777,15.717,15.717,0,0,1-1.5.536,8.988,8.988,0,0,1-1.574.368,10.678,10.678,0,0,1-1.49.1,9.369,9.369,0,0,1-6.691-2.466,8.892,8.892,0,0,1,0-12.673,9.073,9.073,0,0,1,3.007-1.9,10.171,10.171,0,0,1,3.62-.62,11.587,11.587,0,0,1,2.868.376,11.279,11.279,0,0,1,1.534.466,17.084,17.084,0,0,1,1.58.731v2.758c-.8-.463-1.458-.8-1.962-1.028a12.009,12.009,0,0,0-1.43-.55,9.553,9.553,0,0,0-2.807-.425,6.269,6.269,0,0,0-4.659,1.867,6.178,6.178,0,0,0-1.887,4.626,6.254,6.254,0,0,0,1.84,4.69,6.562,6.562,0,0,0,4.782,1.813,8.788,8.788,0,0,0,2.982-.491c.242-.079.473-.165.7-.265s.465-.206.733-.326.539-.276.842-.436.659-.36,1.048-.575" transform="translate(-107.558 -29.538)" fill="#28367b"/>
      <path id="Tracé_296" data-name="Tracé 296" d="M353.232,85.966v17.245h-2.425V95.6h-9.516v7.611h-2.418V85.966h2.418v7.42h9.516v-7.42Z" transform="translate(-116.857 -29.645)" fill="#28367b"/>
      <path id="Tracé_297" data-name="Tracé 297" d="M374.681,101v2.214H364.529V85.966h9.982v2.217h-7.562v5.253h7.359v2.212h-7.359V101Z" transform="translate(-125.705 -29.645)" fill="#28367b"/>
      <path id="Tracé_298" data-name="Tracé 298" d="M393.95,97.677l3.6,5.535h-2.869l-2.989-4.663c-.3-.458-.575-.871-.837-1.259a12.766,12.766,0,0,0-.787-1.008,2.566,2.566,0,0,0-2.053-.776h-1.862v7.706h-2.421V85.966h4.632a9.917,9.917,0,0,1,2.426.285,5.374,5.374,0,0,1,1.91.9,3.882,3.882,0,0,1,1.236,1.544,4.881,4.881,0,0,1,.415,2.057,3.955,3.955,0,0,1-1.084,2.891,7.135,7.135,0,0,1-1.439,1.124c.128.136.243.264.371.409.113.141.235.3.363.47.246.364.493.7.714,1.034s.452.668.673.994m-2.989-5.066a2.3,2.3,0,0,0,.643-.784,2.338,2.338,0,0,0,.224-1.1,2.2,2.2,0,0,0-.843-1.833,4.434,4.434,0,0,0-2.636-.706h-2.2v5.109h2.076a6.3,6.3,0,0,0,1.608-.178,3.232,3.232,0,0,0,1.125-.5" transform="translate(-132.326 -29.645)" fill="#28367b"/>
      <path id="Tracé_299" data-name="Tracé 299" d="M419.2,98.889v2.638a14.116,14.116,0,0,1-1.524.777,15.84,15.84,0,0,1-1.511.536,8.934,8.934,0,0,1-1.574.368,10.733,10.733,0,0,1-1.49.1,9.368,9.368,0,0,1-6.69-2.466,8.883,8.883,0,0,1,0-12.673,9.065,9.065,0,0,1,3-1.9,10.183,10.183,0,0,1,3.614-.62,11.755,11.755,0,0,1,2.882.376,11.282,11.282,0,0,1,1.528.466,16.285,16.285,0,0,1,1.575.731v2.758c-.8-.463-1.454-.8-1.949-1.028a12.622,12.622,0,0,0-1.437-.55,9.568,9.568,0,0,0-2.8-.425,6.283,6.283,0,0,0-4.662,1.867,6.761,6.761,0,0,0-.052,9.316,6.589,6.589,0,0,0,4.785,1.813,8.887,8.887,0,0,0,2.991-.491c.231-.079.462-.165.693-.265s.468-.206.73-.326.539-.276.847-.436.66-.36,1.047-.575" transform="translate(-139.229 -29.538)" fill="#28367b"/>
      <path id="Tracé_300" data-name="Tracé 300" d="M445.237,85.966v17.245h-2.422V95.6H433.3v7.611h-2.429V85.966H433.3v7.42h9.517v-7.42Z" transform="translate(-148.581 -29.645)" fill="#28367b"/>
      <path id="Tracé_301" data-name="Tracé 301" d="M466.777,101v2.214H456.625V85.966h9.981v2.217h-7.555v5.253H466.4v2.212h-7.349V101Z" transform="translate(-157.463 -29.645)" fill="#28367b"/>
      <path id="Tracé_302" data-name="Tracé 302" d="M222.124,134.5a4.085,4.085,0,0,1,1.246,3.122,4.506,4.506,0,0,1-1.633,3.672,6.863,6.863,0,0,1-4.331,1.264h-5.262v-17.2h4.068a8.947,8.947,0,0,1,2.325.3,5.391,5.391,0,0,1,1.851.9A4.4,4.4,0,0,1,222,130.13a4.1,4.1,0,0,1-1.534,3.308,4.493,4.493,0,0,1,1.662,1.057m-3.52-2.374a2.206,2.206,0,0,0,.647-.776,2.439,2.439,0,0,0,.225-1.1,2.868,2.868,0,0,0-.225-1.21,2.046,2.046,0,0,0-.627-.792,3.308,3.308,0,0,0-1.137-.5,6.66,6.66,0,0,0-1.7-.187h-1.225v5.224h1.29a4.58,4.58,0,0,0,2.751-.66m1.384,7.521a2.249,2.249,0,0,0,.9-1.9,2.969,2.969,0,0,0-.229-1.235,1.97,1.97,0,0,0-.713-.784,4.112,4.112,0,0,0-1.279-.541,8.538,8.538,0,0,0-1.891-.191h-2.211v5.361h2.6a6.188,6.188,0,0,0,1.652-.187,3.946,3.946,0,0,0,1.168-.52" transform="translate(-73.156 -43.225)" fill="#28367b"/>
      <rect id="Rectangle_108" data-name="Rectangle 108" width="2.39" height="17.204" transform="translate(152.569 82.124)" fill="#28367b"/>
      <path id="Tracé_303" data-name="Tracé 303" d="M255.624,127.553a8.8,8.8,0,0,1,0,12.567,9.479,9.479,0,0,1-12.9.026,8.9,8.9,0,0,1-.017-12.571,9.518,9.518,0,0,1,12.922-.022m-1.807,10.874a6.412,6.412,0,0,0,0-9.164,6.615,6.615,0,0,0-9.286,0,6.526,6.526,0,0,0-.027,9.164,6.4,6.4,0,0,0,4.684,1.908,6.326,6.326,0,0,0,4.629-1.908" transform="translate(-82.8 -43.117)" fill="#28367b"/>
      <path id="Tracé_304" data-name="Tracé 304" d="M287.275,125.349v17.2h-2.412V129.371l-5.507,6.819-5.524-6.819v13.182h-2.425v-17.2h2.127l5.822,7.127,5.8-7.127Z" transform="translate(-93.592 -43.225)" fill="#28367b"/>
      <path id="Tracé_305" data-name="Tracé 305" d="M309.494,137.715v2.205H299.385v-17.2h9.941v2.209H301.8v5.249h7.32v2.18l-7.32.033v5.328Zm-3.556-20h3.624l-4.751,4.841h-2.084Z" transform="translate(-103.24 -40.593)" fill="#28367b"/>
      <path id="Tracé_306" data-name="Tracé 306" d="M331.676,127.661a7.5,7.5,0,0,1,1.9,2.742,9.626,9.626,0,0,1,.623,3.577,8.487,8.487,0,0,1-2.394,6.181,7.741,7.741,0,0,1-2.894,1.806,11.18,11.18,0,0,1-3.762.586h-6.462v-17.2h6.3a11.827,11.827,0,0,1,3.761.569,8.076,8.076,0,0,1,2.934,1.743m-1.854,10.948a6.053,6.053,0,0,0,1.854-4.629,6.135,6.135,0,0,0-1.83-4.65,6.865,6.865,0,0,0-4.984-1.772h-3.757v12.791h3.708a7.037,7.037,0,0,0,5.009-1.739" transform="translate(-109.895 -43.225)" fill="#28367b"/>
      <rect id="Rectangle_109" data-name="Rectangle 109" width="2.399" height="17.204" transform="translate(226.543 82.124)" fill="#28367b"/>
      <path id="Tracé_307" data-name="Tracé 307" d="M368.588,138.24v2.634a12.3,12.3,0,0,1-1.523.778c-.483.2-.984.375-1.511.536a9.345,9.345,0,0,1-1.574.368,11.736,11.736,0,0,1-1.474.111,9.422,9.422,0,0,1-6.677-2.469,8.866,8.866,0,0,1,0-12.646,8.9,8.9,0,0,1,3-1.9,10.057,10.057,0,0,1,3.6-.623,11.572,11.572,0,0,1,2.871.371,12.378,12.378,0,0,1,1.527.471c.488.191,1.008.438,1.576.723v2.763c-.8-.454-1.451-.81-1.952-1.029a13.352,13.352,0,0,0-1.426-.549,9.607,9.607,0,0,0-2.806-.425,6.246,6.246,0,0,0-4.646,1.861,6.743,6.743,0,0,0-.054,9.3,6.519,6.519,0,0,0,4.764,1.817,8.779,8.779,0,0,0,2.991-.5,7.069,7.069,0,0,0,.7-.252c.225-.09.467-.2.723-.334s.539-.269.847-.43.654-.354,1.043-.579" transform="translate(-121.79 -43.117)" fill="#28367b"/>
      <path id="Tracé_308" data-name="Tracé 308" d="M387.082,125.173,395,142.493h-2.571l-2.532-5.542H382.83l-2.545,5.542h-2.577l7.939-17.32Zm-3.244,9.564h5.055l-2.541-5.538Z" transform="translate(-130.249 -43.165)" fill="#28367b"/>
      <path id="Tracé_309" data-name="Tracé 309" d="M417.28,140.348v2.2H406.94v-17.2h2.416v15Z" transform="translate(-140.329 -43.225)" fill="#28367b"/>
      <path id="Tracé_310" data-name="Tracé 310" d="M436.352,140.348v2.2H426.225v-17.2h9.953v2.209h-7.542v5.248h7.34v2.214h-7.34v5.328Z" transform="translate(-146.98 -43.225)" fill="#28367b"/>
    </g>
  </g>
</svg>
